<svg xmlns="http://www.w3.org/2000/svg" viewBox="0 0 300 300">
  <defs>
    <linearGradient id="prof5" x1="0%" y1="0%" x2="100%" y2="100%">
      <stop offset="0%" style="stop-color:#3b82f6;"/>
      <stop offset="100%" style="stop-color:#1d4ed8;"/>
    </linearGradient>
  </defs>
  <!-- Background -->
  <circle cx="150" cy="150" r="150" fill="url(#prof5)"/>
  <!-- Head -->
  <circle cx="150" cy="88" r="44" fill="#f5c9a3"/>
  <!-- Hair (slicked back) -->
  <path d="M 110 65 Q 100 75 105 90 L 110 110 Q 125 120 150 125 Q 175 120 190 110 L 195 90 Q 200 75 190 65 Q 170 50 150 50 Q 130 50 110 65 Z" fill="#2c2416"/>
  <!-- Eyes -->
  <circle cx="133" cy="83" r="4.5" fill="#1f2937"/>
  <circle cx="167" cy="83" r="4.5" fill="#1f2937"/>
  <circle cx="135" cy="81" r="2" fill="#ffffff"/>
  <circle cx="169" cy="81" r="2" fill="#ffffff"/>
  <!-- Eyebrows -->
  <path d="M 122 70 Q 133 66 142 70" fill="none" stroke="#2c2416" stroke-width="2.5"/>
  <path d="M 158 70 Q 167 66 178 70" fill="none" stroke="#2c2416" stroke-width="2.5"/>
  <!-- Nose -->
  <path d="M 150 83 L 152 105" stroke="#e8b299" stroke-width="2"/>
  <circle cx="152" cy="107" r="2" fill="#e8b299"/>
  <!-- Mouth (serious expression) -->
  <path d="M 138 113 Q 150 118 162 113" fill="none" stroke="#1f2937" stroke-width="2"/>
  <!-- Body (business formal) -->
  <rect x="100" y="140" width="100" height="105" fill="#1e3a8a" rx="10"/>
  <!-- Tie -->
  <polygon points="150,140 145,165 150,170 155,165" fill="#dc2626"/>
  <!-- Shirt -->
  <rect x="115" y="160" width="70" height="85" fill="#ffffff"/>
  <!-- Buttons -->
  <circle cx="150" cy="185" r="2.5" fill="#1f2937"/>
  <circle cx="150" cy="205" r="2.5" fill="#1f2937"/>
  <!-- Arms -->
  <rect x="85" y="155" width="25" height="75" fill="#f5c9a3" rx="12"/>
  <rect x="190" y="155" width="25" height="75" fill="#f5c9a3" rx="12"/>
</svg>